# xmcd CD database file
#
# Track frame offsets:
#	150
#	21872
#	45080
#	75735
#	101897
#	124357
#	152627
#	186102
#	212442
#	235660
#
# Disc length: 3397 seconds
#
# Revision: 0
# Processed by: cddbd v1.5.2PL0 Copyright (c) Steve Scherf et al.
# Submitted via: CDex 1.70beta1
#
DISCID=760d430a
DTITLE=Gary Stroutsos, William Eaton and Will Clipman - Quiet Fire
DYEAR=2004
DGENRE=New Age
TTITLE0=Land of Snows
TTITLE1=Xiao Messenger At Midnight
TTITLE2=River of Heaven
TTITLE3=Night Dreamers
TTITLE4=Stars Over Sedona
TTITLE5=Stone Garden
TTITLE6=Water Mystery
TTITLE7=Future Primitive
TTITLE8=Sea of Clouds
TTITLE9=Quiet Fire
EXTD=YEAR: 2004
EXTT0=
EXTT1=
EXTT2=
EXTT3=
EXTT4=
EXTT5=
EXTT6=
EXTT7=
EXTT8=
EXTT9=
PLAYORDER=
